<svg xmlns="http://www.w3.org/2000/svg" width="48" height="48" viewBox="0 0 48 48">
  <rect width="48" height="48" rx="10" fill="#00A4A6"/>
  <g transform="translate(12,10)">
    <path fill="#FFFFFF" d="M12 2C8 6 4 10 4 14c0 2.2 1.8 4 4 4 1.5 0 2.8-.8 3.5-2 1.2 2.5 3.7 4 6.5 4 4 0 7-3 7-7 0-4-4-8-8-12-1.5 1.5-3 3-5 5z"/>
    <path fill="#FFFFFF" opacity="0.85" d="M8 18c-2.2 0-4 1.8-4 4 0 3.3 2.7 6 6 6 2.2 0 4.1-1.2 5.2-3 1.5 2.8 4.5 4.8 8 4.8 5 0 9-4 9-9 0-3.5-2-6.5-5-8.5-1 2-2.5 3.8-4.2 5.2z"/>
    <path fill="#FFFFFF" opacity="0.7" d="M10 26c-1.7 0-3 1.3-3 3s1.3 3 3 3c1.1 0 2-.6 2.5-1.5.8 1.5 2.4 2.5 4.2 2.5 2.8 0 5-2.2 5-5 0-2-1.2-3.7-3-4.5-.6 1.2-1.5 2.2-2.7 2.8z"/>
  </g>
</svg>
